<svg data-v-fde0c5aa="" xmlns="http://www.w3.org/2000/svg" viewBox="0 0 300 300" class="font"><!----><defs data-v-fde0c5aa=""><!----></defs><rect data-v-fde0c5aa="" fill="#0B173D" x="0" y="0" width="300px" height="300px" class="logo-background-square"></rect><defs data-v-fde0c5aa=""><!----></defs><g data-v-fde0c5aa="" id="97cafb45-d26b-470c-b40a-4a042966f003" fill="#D1A103" transform="matrix(2.3874120712280273,0,0,2.3874120712280273,37.32609856354593,126.61529883922252)"><path d="M8.51 4.79C7.69 4.13 6.55 3.78 5.22 3.78L1.40 3.78C1.25 3.78 1.12 3.91 1.12 4.06L1.12 5.18L3.28 8.69L1.12 8.69L1.12 15.53C1.12 15.68 1.25 15.81 1.40 15.81L3.04 15.81C3.19 15.81 3.30 15.68 3.30 15.53L3.30 10.89L5.25 10.89C6.57 10.88 7.70 10.54 8.51 9.88C9.34 9.23 9.80 8.30 9.80 7.34C9.80 6.36 9.34 5.43 8.51 4.79ZM4.17 5.96L5.22 5.96C6.79 5.96 7.62 6.65 7.62 7.34C7.62 7.92 7 8.51 5.81 8.67ZM15.09 5.95L15.09 13.61L16.93 13.61C17.12 13.61 17.28 13.73 17.28 13.89L17.28 15.53C17.28 15.68 17.12 15.81 16.93 15.81L10.99 15.81C10.84 15.81 10.71 15.68 10.71 15.53L10.71 13.89C10.71 13.73 10.84 13.61 10.99 13.61L12.89 13.61L12.89 5.95L10.99 5.95C10.84 5.95 10.71 5.84 10.71 5.68L10.71 4.05C10.71 3.89 10.84 3.77 10.99 3.77L16.93 3.77C17.12 3.77 17.28 3.89 17.28 4.05L17.28 5.68C17.28 5.84 17.12 5.95 16.93 5.95ZM27.16 15.89L21.14 9.32L21.14 15.53C21.14 15.68 21.03 15.81 20.87 15.81L19.24 15.81C19.08 15.81 18.96 15.68 18.96 15.53L18.96 3.70L24.98 10.26L24.98 4.06C24.98 3.91 25.10 3.78 25.24 3.78L26.89 3.78C27.03 3.78 27.16 3.91 27.16 4.06ZM35.57 5.68C35.57 5.84 35.42 5.96 35.24 5.96L32.56 5.96L32.56 15.47C32.56 15.65 32.44 15.81 32.30 15.81L30.65 15.81C30.51 15.81 30.38 15.65 30.38 15.47L30.38 5.96L27.65 5.96C27.50 5.96 27.37 5.84 27.37 5.68L27.37 4.05C27.37 3.89 27.50 3.78 27.65 3.78L35.24 3.78C35.42 3.78 35.57 3.89 35.57 4.05ZM45.11 5.67C45.11 5.82 44.98 5.95 44.84 5.95L40.33 5.95L42.62 8.69L43.40 8.69C43.60 8.69 43.74 8.81 43.74 8.96L43.74 10.60C43.74 10.75 43.60 10.88 43.40 10.88L39.09 10.88L39.09 15.51C39.09 15.67 38.98 15.81 38.82 15.81L37.18 15.81C37.03 15.81 36.90 15.67 36.90 15.51L36.90 8.69L39.76 8.69L36.90 5.25L36.90 4.06C36.90 3.89 37.03 3.77 37.18 3.77L44.84 3.77C44.98 3.77 45.11 3.89 45.11 4.06ZM50.89 5.95L50.89 13.61L52.72 13.61C52.92 13.61 53.07 13.73 53.07 13.89L53.07 15.53C53.07 15.68 52.92 15.81 52.72 15.81L46.79 15.81C46.63 15.81 46.51 15.68 46.51 15.53L46.51 13.89C46.51 13.73 46.63 13.61 46.79 13.61L48.69 13.61L48.69 5.95L46.79 5.95C46.63 5.95 46.51 5.84 46.51 5.68L46.51 4.05C46.51 3.89 46.63 3.77 46.79 3.77L52.72 3.77C52.92 3.77 53.07 3.89 53.07 4.05L53.07 5.68C53.07 5.84 52.92 5.95 52.72 5.95ZM62.96 15.89L56.94 9.32L56.94 15.53C56.94 15.68 56.83 15.81 56.67 15.81L55.03 15.81C54.88 15.81 54.75 15.68 54.75 15.53L54.75 3.70L60.77 10.26L60.77 4.06C60.77 3.91 60.90 3.78 61.04 3.78L62.69 3.78C62.83 3.78 62.96 3.91 62.96 4.06ZM67.91 15.81C69.27 15.82 70.63 15.37 71.75 14.45C74.30 12.35 74.68 8.55 72.56 5.99C71.39 4.55 69.65 3.79 67.91 3.79L64.92 3.79C64.76 3.79 64.64 3.92 64.64 4.06L64.64 15.47C64.64 15.67 64.76 15.81 64.92 15.81ZM70.88 7.38C72.23 9.00 71.99 11.42 70.35 12.75C69.65 13.34 68.78 13.64 67.91 13.62L66.82 13.62L66.82 5.98L67.91 5.98C69.02 5.98 70.13 6.45 70.88 7.38ZM83.54 15.54C83.54 15.69 83.41 15.82 83.27 15.82L75.61 15.82C75.46 15.82 75.33 15.69 75.33 15.54L75.33 4.06C75.33 3.91 75.46 3.78 75.61 3.78L82.99 3.78C83.15 3.78 83.27 3.91 83.27 4.06L83.27 5.70C83.27 5.85 83.15 5.96 82.99 5.96L77.52 5.96L77.52 8.71L82.71 8.71C82.87 8.71 82.99 8.82 82.99 8.97L82.99 10.61C82.99 10.77 82.87 10.89 82.71 10.89L77.52 10.89L77.52 13.62L83.27 13.62C83.41 13.62 83.54 13.75 83.54 13.90ZM92.79 15.37L90.57 11.42L90.26 10.89L90.19 10.77C92.22 10.32 93.27 8.82 93.27 7.35C93.27 6.38 92.82 5.46 92.05 4.82C91.27 4.14 90.16 3.79 88.89 3.79L84.80 3.79C84.64 3.79 84.52 3.92 84.52 4.06L84.52 5.17L84.66 5.42L84.66 5.43L86.52 8.71L84.52 8.71L84.52 15.54C84.52 15.69 84.64 15.82 84.80 15.82L86.44 15.82C86.58 15.82 86.70 15.69 86.70 15.54L86.70 10.89L87.75 10.89L88.05 11.42L90.44 15.65L90.47 15.69C90.51 15.76 90.59 15.82 90.69 15.82L92.57 15.82C92.72 15.82 92.83 15.69 92.83 15.53C92.83 15.48 92.83 15.44 92.81 15.40ZM88.73 8.19L87.49 5.98L88.89 5.98C90.40 5.98 91.07 6.69 91.07 7.35C91.07 7.91 90.57 8.53 89.43 8.68C89.31 8.69 89.17 8.71 89.03 8.71Z"></path></g><!----><!----></svg>